PathFileType	4	(X/Y/Z)	2014001\dynamic\2014001_C1_01.trc
DataRate	CameraRate	NumFrames	NumMarkers	Units	OrigDataRate	OrigDataStartFrame	OrigNumFrames
100.000000	100.000000	4	52	mm	100.000000	145	387
Frame#	Time	L_IAS			L_IPS			R_IPS			R_IAS			L_FTC			L_FLE			L_FME			L_FAX			L_TTC			L_FAL			L_TAM			L_FCC			L_FM1			L_FM2			L_FM5			R_FTC			R_FLE			R_FME			R_FAX			R_TTC			R_FAL			R_TAM			R_FCC			R_FM1			R_FM2			R_FM5			CV7			TV10			SXS			SJN			L_SIA			L_SRS			L_SAA			L_SAE			L_HLE			L_HME			L_UOA			L_RSP			L_UHE			L_HM2			L_HM5			R_SIA			R_SRS			R_SAA			R_SAE			R_HLE			R_HME			R_UOA			R_RSP			R_UHE			R_HM2			R_HM5			
		X1	Y1	Z1	X2	Y2	Z2	X3	Y3	Z3	X4	Y4	Z4	X5	Y5	Z5	X6	Y6	Z6	X7	Y7	Z7	X8	Y8	Z8	X9	Y9	Z9	X10	Y10	Z10	X11	Y11	Z11	X12	Y12	Z12	X13	Y13	Z13	X14	Y14	Z14	X15	Y15	Z15	X16	Y16	Z16	X17	Y17	Z17	X18	Y18	Z18	X19	Y19	Z19	X20	Y20	Z20	X21	Y21	Z21	X22	Y22	Z22	X23	Y23	Z23	X24	Y24	Z24	X25	Y25	Z25	X26	Y26	Z26	X27	Y27	Z27	X28	Y28	Z28	X29	Y29	Z29	X30	Y30	Z30	X31	Y31	Z31	X32	Y32	Z32	X33	Y33	Z33	X34	Y34	Z34	X35	Y35	Z35	X36	Y36	Z36	X37	Y37	Z37	X38	Y38	Z38	X39	Y39	Z39	X40	Y40	Z40	X41	Y41	Z41	X42	Y42	Z42	X43	Y43	Z43	X44	Y44	Z44	X45	Y45	Z45	X46	Y46	Z46	X47	Y47	Z47	X48	Y48	Z48	X49	Y49	Z49	X50	Y50	Z50	X51	Y51	Z51	X52	Y52	Z52	

146	1.45	141.6455688476563	859.0944824218755	513.5319824218752	239.8777313232423	906.1721801757817	679.103454589844	329.4161071777345	904.0640258789067	670.999694824219	380.1486206054689	874.0798950195317	482.8778991699221	95.5301208496094	782.5795288085942	613.3319091796877	147.1623077392579	439.2248535156252	694.0875244140627	255.0664215087892	420.0157775878909	656.715515136719	148.9424285888672	386.6143798828127	733.371032714844	187.1879577636719	345.9465332031251	676.0935058593752	208.9147949218751	94.19544219970706	864.3191528320317	294.5962219238282	98.26296997070318	830.9523925781255	262.6616516113282	67.83123779296878	910.879516601563	265.6975708007814	26.71974563598634	736.318786621094	203.8013763427736	35.41468811035158	731.8953857421877	166.9310455322266	25.45058822631837	792.942504882813	451.6833496093752	779.6536254882817	564.065368652344	421.1405334472659	442.4861755371096	457.8244628906252	302.6172790527345	433.6332702636721	450.6787719726565	427.3847351074221	375.8544006347657	456.6521911621096	371.1018371582032	385.5383605957034	396.9894714355471	385.8601989746096	64.58872222900393	405.7329101562502	302.9562377929689	90.00662231445315	374.0453491210939	326.1513671875001	22.53699302673341	441.8696899414065	315.6876220703126	47.50086212158205	256.3934326171876	375.3597717285157	51.94979095458987	258.4602355957032	412.3932800292971	26.34743881225587	304.9987182617189	291.9890441894532	1370.848510742188	633.1997680664065	283.6455993652345	1139.1806640625	701.8980712890627	262.9244689941407	1137.787475585938	471.2906188964846	276.2621154785157	1301.142578125	509.057556152344	191.7390289306641	1183.485595703125	712.6210937500002	203.3751983642579	1313.713134765625	687.2917480468752	89.59897613525393	1312.771240234375	620.032897949219	102.6295013427735	1321.43408203125	577.7051391601565	23.11135292053223	1038.118896484375	624.7423095703127	99.3805770874024	1007.153259277344	653.2827148437502	49.6096115112305	1005.343078613282	658.4373779296877	64.38971710205081	809.344848632813	524.9185791015627	-2.088539838790894	804.0690307617192	575.1382446289065	55.87529754638675	731.2131347656252	491.216247558594	-4.930313110351564	726.5009765625002	575.5627441406252	400.4530944824221	1176.380004882813	698.085876464844	380.1823730468751	1300.598876953125	669.595153808594	476.1623840332034	1290.54052734375	583.793395996094	460.0173645019534	1292.646850585938	536.0725097656252	527.3140869140627	991.2338867187505	594.4630126953127	452.7591247558596	978.6524047851567	626.8338012695315	498.2700805664065	969.5878906250005	629.0109863281252	478.0091552734377	786.3093261718755	496.6134948730471	544.203796386719	779.7936401367192	545.4814453125002	489.1802062988284	699.3057250976565	462.3011779785159	541.1367187500002	699.5579223632815	549.8706665039065	
147	1.46	143.7593536376954	860.063354492188	507.4109497070315	241.6463012695314	907.1210937500005	673.1693115234377	331.2219238281251	905.0086059570317	665.076354980469	382.3481750488282	875.0805053710942	477.065368652344	97.05920410156256	783.5424194335942	607.340515136719	147.2414703369141	440.218200683594	688.3035278320315	255.3493194580079	420.4796447753909	651.0772094726565	148.9003448486329	387.8900146484377	728.0874023437502	187.0507049560547	346.5982360839845	671.1497192382815	208.1562652587892	97.02623748779303	862.7541503906255	293.5784301757814	100.6007995605469	829.288696289063	261.830291748047	71.62738800048831	909.7236328125005	265.5305175781251	26.90295600891115	736.0242919921877	203.5924072265626	35.35878753662111	731.624206542969	166.8710937500001	25.92392349243165	792.3831176757817	453.500427246094	780.6277465820317	558.2104492187502	422.310974121094	443.0390930175784	453.027038574219	303.9783630371095	434.6673278808596	445.0699462890627	428.3391113281252	376.2970275878907	452.4203796386721	372.4299926757814	385.4725036621096	392.6303405761721	386.1367492675784	64.54521942138675	404.9222412109377	303.4186096191407	89.86518859863284	373.011932373047	326.3619689941407	22.96855354309083	441.5099182128909	315.1434020996095	46.18497848510744	255.9131927490236	374.9918518066407	50.41645431518558	257.5881652832032	412.5612792968752	25.85550498962404	304.3627014160157	294.3917541503907	1371.765502929688	627.8652954101565	285.6329956054689	1139.918212890625	696.2248535156252	265.2645874023439	1138.912963867188	465.6429443359377	278.7528686523439	1302.22802734375	503.574890136719	193.4867095947267	1184.42822265625	706.7442626953127	205.5020904541017	1314.686279296875	681.6346435546877	91.94409179687503	1314.07763671875	614.0686035156252	105.1022415161133	1322.752319335938	571.8255004882815	25.36740684509279	1039.513549804688	619.132019042969	101.7966842651368	1008.542419433594	647.2872314453127	52.03151321411136	1006.66796875	652.7210693359377	66.25354766845706	811.093383789063	518.508239746094	0.007815035991370681	805.6196289062505	568.943786621094	57.63964462280276	733.0689697265627	484.4545898437502	-2.664096832275392	728.0120239257815	569.184020996094	402.6450500488284	1177.013061523438	692.4138793945315	382.4687805175782	1301.283813476563	664.2004394531252	478.5544128417971	1291.435424804688	578.4070434570315	462.3959655761721	1293.617065429688	530.682067871094	529.1994628906252	991.9131469726567	587.8484497070315	454.5473632812502	979.244506835938	620.0517578125002	500.0462646484377	970.2380981445317	622.4104614257815	479.9885864257815	787.2711791992192	489.4313049316409	546.1557617187502	780.661499023438	538.3581542968752	491.2032165527346	700.2796630859377	454.9878845214846	543.1287231445315	700.4215087890627	542.5903320312502	
148	1.47	145.8280029296876	861.1253051757817	501.2796020507815	243.4671020507814	908.1216430664067	667.1758422851565	333.0678100585939	905.994750976563	659.0593261718752	384.4993591308596	876.0336914062505	471.2402038574221	98.67102813720709	784.5893554687505	601.292175292969	147.224594116211	441.2467346191409	682.2661132812502	255.5585479736329	420.9342346191409	645.1552734375002	148.7956695556641	389.2222595214846	722.562194824219	186.8142395019532	347.2680664062501	665.9472656250002	207.4178161621095	100.0055465698243	861.019409179688	292.5060119628907	103.0997695922852	827.3759155273442	261.015106201172	75.63457489013675	908.356323242188	265.3890075683595	27.05257987976076	735.6815185546877	203.3889160156251	35.29574584960939	731.3057861328127	166.8078613281251	26.47512054443361	791.7473144531255	455.3123474121096	781.600952148438	552.321716308594	423.437194824219	443.5427246093752	448.4929199218752	305.2781677246095	435.6369628906252	439.7091979980471	429.2297973632815	376.6940002441407	448.488708496094	373.7136535644532	385.3603820800784	388.5479736328127	386.3251953125002	64.50390625000003	404.3120727539065	303.7814025878907	89.73516845703128	372.1856384277345	326.5536193847657	23.25033950805665	441.2613220214846	314.4761657714845	45.12003707885744	255.6527252197267	374.4882812500001	49.18546676635745	256.9066772460939	412.6484069824221	25.60728454589845	303.8668518066407	296.8434143066407	1372.738891601563	622.591003417969	287.7160644531251	1140.671020507813	690.5386352539065	267.649139404297	1140.138916015625	459.9803466796877	281.3091430664064	1303.39697265625	498.1365051269534	195.2967987060548	1185.3798828125	700.8627929687502	207.6674804687501	1315.680297851563	676.0104980468752	94.33804321289065	1315.448974609375	608.124694824219	107.6309127807618	1324.137817382813	565.969421386719	27.56341934204103	1040.991455078125	613.5012817382815	104.0892715454102	1010.015014648438	641.3709106445315	54.32488632202151	1008.082458496094	647.028259277344	68.14498138427737	812.9511108398442	512.081237792969	2.078848361968995	807.2648925781255	562.6712036132815	59.50527954101565	735.0117797851565	477.7201232910159	-0.415950804948807	729.604431152344	562.7214965820315	404.8762817382815	1177.6689453125	686.7741699218752	384.7886657714846	1301.998413085938	658.8743896484377	480.994567871094	1292.38525390625	573.1282958984377	464.8587036132815	1294.664428710938	525.3828125000002	531.140075683594	992.6542358398442	581.324645996094	456.3769226074221	979.8908691406255	613.3130493164065	501.8726196289065	970.9121093750005	615.8178710937502	482.0048828125002	788.4273071289067	482.0792541503909	548.130310058594	781.607299804688	531.2102661132815	493.2917785644534	701.4182128906252	447.549499511719	545.1113891601565	701.3607177734377	535.2280273437502	
149	1.48	147.8323364257813	862.2661132812505	495.1518859863284	245.3284759521486	909.1608276367192	661.129089355469	334.9440002441407	907.0176391601567	652.9544677734377	386.5712890625002	876.9286499023442	465.3820800781252	100.3489456176758	785.706176757813	595.1992187500002	147.1114654541016	442.2913513183596	675.967468261719	255.6812286376954	421.359313964844	638.912536621094	148.6349182128907	390.5986022949221	716.7878417968752	186.4705963134766	347.9377746582032	660.476013183594	206.7199096679689	103.1171493530274	859.0894165039067	291.4074096679689	105.7318649291993	825.1793823242192	260.2514038085939	79.83084106445315	906.738159179688	265.2820739746095	27.14679908752443	735.2896728515627	203.1989288330079	35.22092437744142	730.939880371094	166.7526550292969	27.10497665405275	791.030639648438	457.1053466796877	782.5703125000005	546.3980102539065	424.5302429199221	443.9831237792971	444.2615966796877	306.5170288085939	436.506530761719	434.6996765136721	430.0742492675784	377.0322875976564	444.8913574218752	374.9517822265626	385.2005310058596	384.778503417969	386.4422912597659	64.46099853515628	403.8844299316409	304.060516357422	89.61757659912112	371.5446777343751	326.7300109863282	23.40300750732423	441.1157531738284	313.7333984375001	44.28488159179689	255.5704040527345	373.8901672363282	48.2178649902344	256.3824462890626	412.6699523925784	25.53931617736818	303.4969482421876	299.3507690429689	1373.74853515625	617.3809204101565	289.8938598632814	1141.422485351563	684.844177246094	270.074432373047	1141.44970703125	454.3060302734377	283.9298400878907	1304.629760742188	492.7522583007815	197.1972503662111	1186.319091796875	694.9986572265627	209.8907318115236	1316.679321289063	670.4418945312502	96.7874374389649	1316.857055664063	602.2393798828127	110.2150497436524	1325.565307617188	560.171569824219	29.69738960266115	1042.526489257813	607.8538818359377	106.2474975585938	1011.534240722657	635.544128417969	56.47882843017581	1009.555480957032	641.3611450195315	70.06299591064456	814.891479492188	505.6311035156252	4.107657909393312	808.982788085938	556.3057250976565	61.46649551391604	737.0241699218752	470.9961853027346	1.779628157615663	731.261657714844	556.1460571289065	407.1492919921877	1178.323852539063	681.167663574219	387.1490783691409	1302.72216796875	653.6165771484377	483.4848327636721	1293.361328125	567.9556884765627	467.4060363769534	1295.7607421875	520.1729736328127	533.1462402343752	993.4282836914067	574.8962402343752	458.2650451660159	980.5658569335942	606.6323242187502	503.7648925781252	971.586791992188	609.250427246094	484.0517272949221	789.7478637695317	474.573913574219	550.122253417969	782.600708007813	524.036560058594	495.4299621582034	702.7026977539065	439.9854736328127	547.0728149414065	702.3457641601565	527.779235839844	
